<?xml version="1.0" encoding="UTF-8" standalone="no"?>
<svg
   version="1.1"
   id="Layer_1"
   x="0px"
   y="0px"
   width="100%"
   viewBox="0 0 384 384"
   enable-background="new 0 0 384 384"
   xml:space="preserve"
   sodipodi:docname="4.svg"
   inkscape:version="1.4.2 (ebf0e94, 2025-05-08)"
   xmlns:inkscape="http://www.inkscape.org/namespaces/inkscape"
   xmlns:sodipodi="http://sodipodi.sourceforge.net/DTD/sodipodi-0.dtd"
   xmlns="http://www.w3.org/2000/svg"
   xmlns:svg="http://www.w3.org/2000/svg"><defs
   id="defs1" /><sodipodi:namedview
   id="namedview1"
   pagecolor="#505050"
   bordercolor="#ffffff"
   borderopacity="1"
   inkscape:showpageshadow="0"
   inkscape:pageopacity="0"
   inkscape:pagecheckerboard="1"
   inkscape:deskcolor="#505050"
   inkscape:zoom="2.2550677"
   inkscape:cx="178.48688"
   inkscape:cy="193.12059"
   inkscape:window-width="1920"
   inkscape:window-height="1200"
   inkscape:window-x="0"
   inkscape:window-y="0"
   inkscape:window-maximized="1"
   inkscape:current-layer="Layer_1" />
<path
   fill="#00f050"
   opacity="1"
   stroke="none"
   d="m 131.91904,269.00812 c 20.06976,11.61288 39.88125,22.94632 59.53891,34.54059 3.65387,2.15512 6.49473,2.12222 10.08104,0.0239 23.71931,-13.87781 47.58364,-27.50821 71.27235,-41.43747 4.05298,-2.38324 7.18814,-2.69806 11.40158,-0.19079 16.31842,9.71063 32.88559,19.00265 49.33179,28.49963 5.69711,3.28979 5.61175,4.2717 -0.41095,7.74884 -43.99616,25.40076 -88.01952,50.7547 -131.94249,76.28131 -3.79482,2.20545 -6.63185,1.65821 -10.10793,-0.36206 -46.08865,-26.78653 -92.10532,-53.70248 -138.483025,-79.98065 -7.815819,-4.42853 -10.246628,-9.23685 -10.166439,-17.97015 0.44524,-48.48861 0.203026,-96.9834 0.25404,-145.47602 0.0022,-2.04733 -1.01397,-4.71534 1.251018,-5.98298 2.239739,-1.2535 4.009484,0.9427 5.80473,1.97958 33.179622,19.1636 66.372986,38.30409 99.457106,57.63147 4.32192,2.52481 7.83967,3.29971 12.1865,0.086 4.08754,-3.02197 8.7391,-5.28103 13.0027,-7.79336 -0.55858,-3.2125 -2.86885,-3.84645 -4.63904,-4.87566 -9.50537,-5.52649 -19.08583,-10.92358 -28.60724,-16.42273 -4.99679,-2.88592 -4.94989,-3.93137 0.16026,-6.88509 16.8731,-9.75277 33.80315,-19.40885 50.585,-29.31607 3.33436,-1.96845 5.88479,-1.88595 9.16722,0.0258 28.50294,16.6009 57.09153,33.05482 85.65455,49.55257 5.46448,3.15624 6.01252,2.84504 6.0636,-3.44519 0.14231,-17.53251 0.0985,-17.45584 -15.2337,-26.21444 -24.88057,-14.21313 -49.75733,-28.4355 -74.48667,-42.908603 -4.56199,-2.66996 -8.06828,-2.894699 -12.7532,-0.129318 -23.52241,13.884671 -47.28487,27.362041 -70.89046,41.107071 -3.34391,1.94707 -6.09395,2.4324 -9.67088,0.32176 -16.355606,-9.65093 -32.868248,-19.03557 -49.314128,-28.53379 -6.362744,-3.67477 -6.422566,-4.81272 -0.230462,-8.40011 43.81308,-25.383107 87.66339,-50.7021 131.43651,-76.15387 3.4327,-1.995932 6.11386,-2.043278 9.59058,-0.02622 48.27209,28.005551 96.61452,55.889946 144.96693,83.756789 2.90671,1.6752 4.18033,3.81904 4.17524,7.25081 -0.0761,51.15873 -0.0401,102.31759 -0.0703,153.47643 -0.004,5.96851 -1.06207,6.47272 -6.48633,3.33753 -33.17446,-19.17481 -66.38839,-38.28244 -99.4595,-57.63402 -4.65659,-2.72479 -8.4064,-3.72019 -13.05844,-0.14148 -4.0078,3.08313 -8.61116,5.3921 -12.75595,7.9241 0.64877,2.85942 2.54764,3.41574 4.07666,4.30359 9.65195,5.60455 19.36706,11.10147 28.97777,16.77544 4.76664,2.81413 4.68885,4.31068 -0.16551,7.11419 -16.7316,9.66288 -33.54014,19.19403 -50.19898,28.98029 -3.75774,2.20746 -6.7021,1.52951 -10.16173,-0.48599 -27.78178,-16.18485 -55.62742,-32.26017 -83.47217,-48.3367 -1.95992,-1.13161 -3.82415,-2.63509 -7.00984,-2.71746 -0.57803,7.25507 -0.778112,14.32625 0.0254,21.37391 0.26188,2.29713 2.74505,3.22377 4.59733,4.30108 8.78442,5.10918 17.60047,10.16396 26.71662,15.42751 M 195.78505,138.5025 c -7.48395,4.10861 -15.13908,7.94626 -21.93172,12.9932 0.974,2.16168 2.41896,2.72021 3.69863,3.46026 9.23042,5.33814 18.49295,10.62151 27.68342,16.02745 2.0755,1.22086 5.47577,1.63185 5.58745,4.43019 0.12753,3.19568 -3.51752,3.61928 -5.6801,4.88013 -14.81981,8.64028 -29.80518,16.9989 -44.55696,25.75203 -3.85632,2.28819 -6.76216,2.02196 -10.5063,-0.16138 -27.7749,-16.19668 -55.660822,-32.20306 -83.531496,-48.23507 -1.382027,-0.79499 -2.699902,-2.02663 -4.486542,-1.58211 -1.143913,0.93295 -0.911934,2.17778 -0.912315,3.29742 -0.01293,38.16426 0.01705,76.32854 -0.03781,114.49271 -0.0042,2.91541 1.294251,4.51721 3.690239,5.8942 42.325236,24.32443 84.637516,48.67166 126.882686,73.13464 3.44233,1.99335 6.17073,2.12689 9.65828,0.0945 32.09705,-18.70486 64.28334,-37.2565 96.42736,-55.88092 1.2525,-0.72565 2.80835,-1.15439 3.72348,-3.41629 -4.83808,-3.74954 -10.88034,-5.96664 -15.80918,-9.73074 -5.14288,-3.92762 -9.24636,-2.84055 -14.33581,0.15902 -23.1043,13.61713 -46.46788,26.79383 -69.60047,40.36374 -3.8723,2.27155 -6.8343,2.08808 -10.5671,-0.0762 -34.73349,-20.13806 -69.52497,-40.17663 -104.371182,-60.11905 -3.625083,-2.07461 -5.139999,-4.58609 -5.101882,-8.78595 0.16336,-17.99716 0.04683,-35.99676 0.05782,-53.99547 0.0036,-5.82592 0.971824,-6.38255 5.96894,-3.48673 33.155141,19.21325 66.428571,38.22795 99.356991,57.82234 6.88491,4.09694 12.3112,5.05073 18.76834,-0.0665 4.19265,-3.3226 9.46776,-5.19326 13.66931,-8.80444 -1.51056,-2.24167 -3.38944,-3.03691 -5.09717,-4.01468 -9.39812,-5.38098 -18.81284,-10.73306 -28.22879,-16.08279 -5.59167,-3.17694 -5.62201,-4.1359 -0.0359,-7.39476 15.68392,-9.14977 31.43385,-18.18796 47.03952,-27.46897 3.16858,-1.88443 5.60129,-1.73617 8.69159,0.073 26.16747,15.31889 52.39467,30.53631 78.66023,45.6866 3.36506,1.94101 6.45813,4.59945 10.36032,5.25163 1.23835,-1.388 0.93964,-2.77863 0.94004,-4.06941 0.0118,-37.83097 -0.0302,-75.66201 0.0513,-113.49276 0.007,-3.31087 -1.38852,-5.17919 -4.09003,-6.73507 C 285.22836,94.186295 242.6539,69.625931 200.12309,44.990284 c -2.65629,-1.538631 -4.669,-1.402176 -7.29117,0.122021 -31.25241,18.166282 -62.57463,36.212501 -93.873599,54.298736 -2.549004,1.472959 -5.061821,3.008549 -8.699723,5.175059 6.694962,3.95356 12.580852,7.23011 18.250552,10.84566 3.95207,2.52021 7.30215,2.56794 11.48602,0.0911 23.65072,-14.00143 47.50594,-27.65712 71.18386,-41.613221 3.76814,-2.220985 6.72882,-2.34481 10.54477,-0.05008 13.27603,7.983566 26.75572,15.62854 40.161,23.397049 21.47818,12.446831 42.94751,24.908901 64.45129,37.311351 2.95847,1.70633 4.8497,3.75839 4.83411,7.46241 -0.0779,18.49839 0.0217,36.9975 -0.043,55.49599 -0.0172,4.92088 -1.38483,5.61865 -5.76257,3.10213 -25.99845,-14.94506 -51.92933,-30.00832 -77.98163,-44.85864 -10.25354,-5.84473 -20.06377,-12.49077 -31.59798,-17.26731 z"
   id="path1"
   sodipodi:nodetypes="cssscssscsssscsscsssssscsssssscscscscsscsssscscsscccssscscsccssssscscscsssssscsssscsccssssscscssssssssc" />
<path
   style="fill:#00f050;fill-opacity:1;stroke:none;stroke-opacity:1"
   d="m 103.29739,176.942 c -6.527005,5.93361 -1.34236,43.34455 -1.34236,43.34455 L 90.363477,246.9935 192.3738,312.05521 275.90982,271.49205 317.27621,292.77766 200.80773,361.45391 56.226163,281.93405 48.997085,138.55733 c 0,0 64.607955,29.01413 54.300305,38.38467 z"
   id="path23"
   sodipodi:nodetypes="sccccccccs" /><path
   style="fill:#00f050;fill-opacity:1;stroke:none;stroke-opacity:1"
   d="m 289.40451,219.84421 c 6.52701,-5.93361 1.34236,-43.34455 1.34236,-43.34455 L 302.33843,149.79271 200.32811,84.730994 116.79209,125.29416 75.425698,104.00854 191.89418,35.332294 l 144.58156,79.519856 7.22908,143.37673 c 0,0 -64.60796,-29.01413 -54.30031,-38.38467 z"
   id="path27"
   sodipodi:nodetypes="sccccccccs" /></svg>
